HIERARCHY
ROOT Pelvis
{
	OFFSET 0.000000 0.000000 0.000000
	CHANNELS 6 Xposition Yposition Zposition Xrotation Yrotation Zrotation
	JOINT LeftUpLeg_virtual
	{
		OFFSET 0.000000 0.000000 0.000000
		CHANNELS 3 Xrotation Yrotation Zrotation
		JOINT LeftUpLeg
		{
			OFFSET 18.735201 -5.666702 -4.541200
			CHANNELS 3 Xrotation Yrotation Zrotation
			JOINT LeftLeg
			{
				OFFSET -0.021200 -31.938179 0.493100
				CHANNELS 3 Xrotation Yrotation Zrotation
				JOINT LeftFoot
				{
					OFFSET 0.021200 -31.938179 -4.336299
					CHANNELS 3 Xrotation Yrotation Zrotation
					JOINT LeftToeBase
					{
						OFFSET 0.943001 -26.722000 15.023500
						CHANNELS 3 Xrotation Yrotation Zrotation
						End Site
						{
							OFFSET 0 0 0
						}
					}
				}
			}
		}
	}
	JOINT RightUpLeg_virtual
	{
		OFFSET 0.000000 0.000000 0.000000
		CHANNELS 3 Xrotation Yrotation Zrotation
		JOINT RightUpLeg
		{
			OFFSET -18.735201 -5.666702 -4.541200
			CHANNELS 3 Xrotation Yrotation Zrotation
			JOINT RightLeg
			{
				OFFSET 0.018946 -31.938133 0.493100
				CHANNELS 3 Xrotation Yrotation Zrotation
				JOINT RightFoot
				{
					OFFSET -0.018946 -31.938126 -4.336299
					CHANNELS 3 Xrotation Yrotation Zrotation
					JOINT RightToeBase
					{
						OFFSET -0.943001 -26.722004 15.023500
						CHANNELS 3 Xrotation Yrotation Zrotation
						End Site
						{
							OFFSET 0 0 0
						}
					}
				}
			}
		}
	}
	JOINT Hips_virtual
	{
		OFFSET 0.000000 0.000000 0.000000
		CHANNELS 3 Xrotation Yrotation Zrotation
		JOINT Hips
		{
			OFFSET -0.000000 -0.000000 -0.000000
			CHANNELS 3 Xrotation Yrotation Zrotation
			JOINT Spine
			{
				OFFSET 0.000000 10.199997 -0.299500
				CHANNELS 3 Xrotation Yrotation Zrotation
				JOINT Spine1
				{
					OFFSET 0.000000 11.900002 -1.516600
					CHANNELS 3 Xrotation Yrotation Zrotation
					JOINT Spine2
					{
						OFFSET 0.000000 13.600006 -2.842500
						CHANNELS 3 Xrotation Yrotation Zrotation
						JOINT Neck_virtual
						{
							OFFSET 0.000000 0.000000 0.000000
							CHANNELS 3 Xrotation Yrotation Zrotation
							JOINT Neck
							{
								OFFSET 0.000000 9.624100 -2.890100
								CHANNELS 3 Xrotation Yrotation Zrotation
								JOINT Head
								{
									OFFSET 0.000000 14.068802 -1.351900
									CHANNELS 3 Xrotation Yrotation Zrotation
									End Site
									{
										OFFSET 0 0 0
									}
								}
							}
						}
						JOINT LeftShoulder_virtual
						{
							OFFSET 0.000000 0.000000 0.000000
							CHANNELS 3 Xrotation Yrotation Zrotation
							JOINT LeftShoulder
							{
								OFFSET 15.263000 10.923401 -0.547700
								CHANNELS 3 Xrotation Yrotation Zrotation
								JOINT LeftArm
								{
									OFFSET 25.438599 -2.830597 -13.032500
									CHANNELS 3 Xrotation Yrotation Zrotation
									JOINT LeftForeArm
									{
										OFFSET 29.960503 0.000000 0.000000
										CHANNELS 3 Xrotation Yrotation Zrotation
										JOINT LeftHand
										{
											OFFSET 27.849251 0.000000 0.000000
											CHANNELS 3 Xrotation Yrotation Zrotation
											End Site
											{
												OFFSET 0 0 0
											}
										}
									}
								}
							}
						}
						JOINT RightShoulder_virtual
						{
							OFFSET 0.000000 0.000000 0.000000
							CHANNELS 3 Xrotation Yrotation Zrotation
							JOINT RightShoulder
							{
								OFFSET -15.263000 10.923401 -0.547700
								CHANNELS 3 Xrotation Yrotation Zrotation
								JOINT RightArm
								{
									OFFSET -25.438599 -2.830597 -13.032500
									CHANNELS 3 Xrotation Yrotation Zrotation
									JOINT RightForeArm
									{
										OFFSET -29.960503 0.000000 0.000000
										CHANNELS 3 Xrotation Yrotation Zrotation
										JOINT RightHand
										{
											OFFSET -27.849251 0.000000 0.000000
											CHANNELS 3 Xrotation Yrotation Zrotation
											End Site
											{
												OFFSET 0 0 0
											}
										}
									}
								}
							}
						}
					}
				}
			}
		}
	}
}
MOTION
Frames: 4
Frame Time: 0.03333333
-7.614311 87.352142 12.980412 0.000000 0.000000 0.000000 -0.241210 -55.630450 -2.402239 -37.555317 -4.985449 16.116969 34.314976 6.643355 -0.986621 12.113807 -6.207741 -11.244173 0.000000 0.000000 0.000000 -0.204870 -53.958559 -2.347228 -2.048505 5.947853 -8.722120 28.071301 -17.724908 -2.282023 -17.190157 1.383582 24.147239 0.000000 0.000000 0.000000 -1.526770 -55.759588 -3.434811 -0.712035 0.015405 0.151197 6.479234 2.913344 -0.561797 11.234627 3.519372 0.971360 0.000000 0.000000 0.000000 4.883371 4.834260 0.921212 2.713642 4.930463 2.161599 0.000000 0.000000 0.000000 9.928865 3.496296 0.233234 -4.968029 -5.422571 -16.160663 11.591197 9.071873 -75.240879 65.018060 -75.647992 70.341598 0.000000 0.000000 0.000000 1.745112 5.296029 0.641769 9.083816 27.363129 4.672159 15.864472 -36.411629 83.442488 127.005004 76.385311 -134.374997 0.000000 0.000000 0.000000 
-7.463725 87.182640 13.201199 0.000000 0.000000 0.000000 0.187927 -55.954812 -1.901837 -38.035363 -5.042707 16.787679 33.980102 5.599068 -1.103900 12.024847 -6.581696 -12.783231 0.000000 0.000000 0.000000 0.127488 -54.359464 -1.946457 -4.424489 6.137180 -8.970023 31.638584 -15.865064 -2.191739 -13.238859 3.690080 23.993071 0.000000 0.000000 0.000000 -0.580985 -55.867539 -2.605261 -0.707189 0.121937 0.089072 7.247024 3.118425 -0.489823 11.626631 3.768731 0.490973 0.000000 0.000000 0.000000 5.107352 4.970578 0.599176 2.769278 4.855938 2.214999 0.000000 0.000000 0.000000 9.918687 3.648654 0.216464 -4.941341 -6.099312 -15.684239 10.754450 6.252834 -74.231254 59.198616 -74.529549 63.688024 0.000000 0.000000 0.000000 2.201773 5.391484 0.388401 8.670762 27.793834 4.798632 16.369575 -35.925849 82.155906 130.497294 75.773477 -137.596319 0.000000 0.000000 0.000000 
-7.056751 86.432007 12.650673 0.000000 0.000000 0.000000 3.038167 -56.887064 0.634798 -41.068312 -5.161148 17.523200 34.536896 5.095364 -1.349133 11.425143 -5.846360 -13.620114 0.000000 0.000000 0.000000 2.593912 -55.545694 0.387987 -9.683511 7.096683 -9.729344 37.702409 -13.363320 -1.631011 -13.096138 4.907082 21.631462 0.000000 0.000000 0.000000 2.649463 -56.493666 0.284073 -0.723881 0.083263 0.008229 8.067741 3.164669 -0.714141 12.007350 4.019443 -0.254853 0.000000 0.000000 0.000000 5.485242 5.156364 -0.043481 2.050950 4.459681 2.315513 0.000000 0.000000 0.000000 10.161444 3.877320 -0.142301 -5.140987 -7.860757 -14.959945 7.694576 1.916584 -70.991443 48.997291 -71.856063 51.982319 0.000000 0.000000 0.000000 2.771155 5.636559 -0.017877 7.854537 28.672711 5.387465 15.712220 -33.990344 79.273976 134.675471 75.548654 -141.641649 0.000000 0.000000 0.000000 
-6.562202 84.956512 11.200100 0.000000 0.000000 0.000000 8.014002 -57.960350 5.022612 -46.335710 -4.798384 18.469161 36.051743 4.865512 -1.926631 10.102998 -4.619869 -14.555750 0.000000 0.000000 0.000000 7.238818 -56.679574 4.567153 -17.101371 7.420470 -11.057964 45.427943 -11.157562 -0.234303 -20.138738 3.850147 17.081007 0.000000 0.000000 0.000000 7.871167 -57.158035 4.944466 -0.757803 -0.054151 -0.055754 8.835837 2.940530 -1.282093 12.298411 4.180471 -1.038220 0.000000 0.000000 0.000000 5.922495 5.345332 -0.691001 0.709068 3.802567 2.478208 0.000000 0.000000 0.000000 10.541787 4.058066 -0.705659 -5.522741 -10.330916 -14.126074 3.548550 -1.975248 -66.408215 44.738685 -69.703972 46.026090 0.000000 0.000000 0.000000 3.370453 5.933241 -0.427933 6.693028 30.076977 6.620918 14.105804 -31.200806 75.518779 139.030495 75.395002 -146.201797 0.000000 0.000000 0.000000 
